PathFileType	4	(X/Y/Z)	C:\Users\WrightLab\Desktop\Jo\P3_32.trc
DataRate	CameraRate	NumFrames	NumMarkers	Units	OrigDataRate	OrigDataStartFrame	OrigNumFrames
100.00	100.00	       10	19	mm	100.00	168	       671
Frame#	Time	Headset_Front			Headset_Back			Headset_Left			Headset_Right			Left_Shoulder			Right_Shoulder			Sternum			C7			Left Elbow			Right Elbow			Left Wrist			Right Wrist			Left ASIS			Right ASIS			S2			Left Knee			Right Knee			Left Ankle			Right Ankle			
		X1	Y1	Z1	X2	Y2	Z2	X3	Y3	Z3	X4	Y4	Z4	X5	Y5	Z5	X6	Y6	Z6	X7	Y7	Z7	X8	Y8	Z8	X9	Y9	Z9	X10	Y10	Z10	X11	Y11	Z11	X12	Y12	Z12	X13	Y13	Z13	X14	Y14	Z14	X15	Y15	Z15	X16	Y16	Z16	X17	Y17	Z17	X18	Y18	Z18	X19	Y19	Z19	

168	1.670	-733.14587	80.15710	-1291.88599										-383.89166	1270.54700	-1482.99365	-741.63861	1276.80884	-1533.79712	-578.46851	1150.60181	-1382.12720				-315.09882	938.36499	-1494.44678				-361.82678	747.49146	-1412.81787	-847.62018	745.66846	-1480.58167	-479.34225	777.46558	-1432.24744							-462.29846	372.46643	-1618.41614	-734.79828	410.61511	-1360.91443							
169	1.680	-732.63342	76.42767	-1288.92432										-387.33069	1270.98779	-1476.85242	-744.72162	1276.77380	-1526.73608	-580.73523	1150.14795	-1376.63074				-317.85443	937.32623	-1485.01807				-364.04745	747.15045	-1407.48987	-849.59436	744.18140	-1474.77319	-482.11096	776.62878	-1425.76501							-464.18613	375.34305	-1607.61646	-735.27612	407.12622	-1354.36487							
170	1.690	-733.09619	75.26236	-1286.82935										-388.65854	1271.16833	-1471.34338	-747.07568	1277.99426	-1523.14844	-583.35614	1150.20227	-1368.48425				-318.80234	936.78741	-1476.11279				-366.30411	747.27338	-1400.17786	-851.91296	747.15155	-1462.32568	-484.08902	775.71167	-1418.97205							-465.07297	376.71112	-1602.50842	-736.12604	406.71252	-1348.40100							
171	1.700	-732.84509	74.29691	-1283.85486										-391.45386	1271.34583	-1464.22375	-749.89484	1275.63831	-1511.32239	-585.96576	1151.44287	-1360.95081				-321.80118	938.56506	-1471.34827				-369.24365	747.58368	-1393.07739	-853.97101	744.50269	-1460.46912	-486.07138	776.28082	-1408.97144							-465.82404	375.21243	-1600.73877	-736.40552	406.20868	-1338.98547							
172	1.710	-732.47632	72.90293	-1280.85425										-394.13733	1272.83118	-1459.56482	-753.21368	1276.47998	-1505.31091	-587.05365	1152.44995	-1356.90833				-323.71011	936.91437	-1460.02014				-370.14923	748.37195	-1382.96863	-856.76526	746.68921	-1447.44299	-487.84375	776.16681	-1401.05933							-469.08432	376.65497	-1588.93127	-737.95477	406.19937	-1334.11621							
173	1.720	-733.24457	73.87499	-1275.09924										-396.92975	1273.21362	-1451.64075	-755.73346	1277.92517	-1501.26990	-590.20966	1153.86475	-1344.79175				-326.49249	938.33905	-1453.75037				-373.58060	749.41510	-1376.99072	-858.89905	747.50946	-1436.41211	-490.73547	773.08319	-1402.40137							-469.93207	375.93451	-1588.25647	-739.11151	406.33652	-1330.73730							
174	1.730	-733.68158	72.94835	-1273.52039										-399.90152	1273.58936	-1443.02393	-758.22394	1277.35901	-1492.50952	-592.28900	1155.26062	-1336.41968				-329.24820	939.81140	-1447.30420				-374.26282	749.09253	-1376.12439	-861.25543	746.06207	-1431.80322	-492.50217	776.59247	-1383.82800							-471.72943	378.08298	-1580.62939	-740.97015	407.10480	-1323.84570							
175	1.740	-734.19598	70.26414	-1273.58508										-401.65799	1274.78613	-1436.34827	-761.81720	1278.05420	-1484.66541	-594.87750	1155.65247	-1329.00525				-331.70392	941.91473	-1441.67090				-377.51648	753.33008	-1357.52466	-864.39001	746.57123	-1423.45239	-494.94949	777.08759	-1374.09912							-473.37402	379.08569	-1569.87512	-742.05316	408.34131	-1314.23401							
176	1.750	-735.77930	70.84933	-1268.83423										-405.17825	1276.77942	-1429.74023	-764.72473	1278.53101	-1476.71106	-598.36676	1157.83032	-1319.84119				-334.62906	944.07703	-1435.02441				-379.22855	754.52655	-1350.09412	-866.68854	747.90295	-1416.27869	-497.64700	777.24847	-1366.72241							-474.43210	378.34015	-1563.15161	-743.59497	409.54950	-1308.50122							
177	1.760	-736.33136	70.59791	-1267.41272										-407.83304	1277.59900	-1420.04993	-767.28296	1280.27563	-1471.43311	-601.82434	1160.03467	-1313.13855				-337.00009	946.03821	-1427.96326				-381.76907	757.67151	-1343.31641	-868.78888	747.37408	-1409.73743	-500.15686	778.41968	-1357.37207							-477.15710	379.95151	-1550.78113	-744.89319	409.78522	-1300.50183							
